<mxfile host="app.diagrams.net" modified="2023-11-20T08:15:57.841Z" agent="Mozilla/5.0 (Windows NT 10.0; Win64; x64; rv:109.0) Gecko/20100101 Firefox/119.0" etag="G5GFINMQq9o_zFRFMabY" version="22.1.3" type="github" pages="4">
  <diagram name="Page-1" id="MPFB5hDKGBPq3vXqqCiy">
    <mxGraphModel dx="1050" dy="558" grid="1" gridSize="10" guides="1" tooltips="1" connect="1" arrows="1" fold="1" page="1" pageScale="1" pageWidth="850" pageHeight="1100" math="0" shadow="0">
      <root>
        <mxCell id="0" />
        <mxCell id="1" parent="0" />
        <mxCell id="qVk8jQdot2jzvfwevHkd-52" value="" style="rounded=0;whiteSpace=wrap;html=1;fillColor=#66B2FF;" parent="1" vertex="1">
          <mxGeometry x="165" y="10" width="520" height="750" as="geometry" />
        </mxCell>
        <mxCell id="qVk8jQdot2jzvfwevHkd-1" value="Bidder" style="shape=umlActor;verticalLabelPosition=bottom;verticalAlign=top;html=1;outlineConnect=0;" parent="1" vertex="1">
          <mxGeometry x="50" y="190" width="30" height="60" as="geometry" />
        </mxCell>
        <mxCell id="qVk8jQdot2jzvfwevHkd-2" value="Seller" style="shape=umlActor;verticalLabelPosition=bottom;verticalAlign=top;html=1;outlineConnect=0;" parent="1" vertex="1">
          <mxGeometry x="760" y="280" width="30" height="60" as="geometry" />
        </mxCell>
        <mxCell id="qVk8jQdot2jzvfwevHkd-3" value="Administrator" style="shape=umlActor;verticalLabelPosition=bottom;verticalAlign=top;html=1;outlineConnect=0;" parent="1" vertex="1">
          <mxGeometry x="50" y="490" width="30" height="60" as="geometry" />
        </mxCell>
        <mxCell id="qVk8jQdot2jzvfwevHkd-7" value="filter auction(s)" style="ellipse;whiteSpace=wrap;html=1;" parent="1" vertex="1">
          <mxGeometry x="230" y="80" width="110" height="40" as="geometry" />
        </mxCell>
        <mxCell id="qVk8jQdot2jzvfwevHkd-8" value="Login" style="ellipse;whiteSpace=wrap;html=1;" parent="1" vertex="1">
          <mxGeometry x="490" y="480" width="115" height="40" as="geometry" />
        </mxCell>
        <mxCell id="qVk8jQdot2jzvfwevHkd-9" value="post item(s)" style="ellipse;whiteSpace=wrap;html=1;" parent="1" vertex="1">
          <mxGeometry x="380" y="200" width="110" height="40" as="geometry" />
        </mxCell>
        <mxCell id="qVk8jQdot2jzvfwevHkd-10" value="view auction&#39;s item details" style="ellipse;whiteSpace=wrap;html=1;" parent="1" vertex="1">
          <mxGeometry x="237.5" y="140" width="120" height="60" as="geometry" />
        </mxCell>
        <mxCell id="qVk8jQdot2jzvfwevHkd-12" value="make a bid for item" style="ellipse;whiteSpace=wrap;html=1;" parent="1" vertex="1">
          <mxGeometry x="280" y="300" width="130" height="50" as="geometry" />
        </mxCell>
        <mxCell id="qVk8jQdot2jzvfwevHkd-13" value="specify time and price for biding" style="ellipse;whiteSpace=wrap;html=1;" parent="1" vertex="1">
          <mxGeometry x="190" y="360" width="110" height="40" as="geometry" />
        </mxCell>
        <mxCell id="qVk8jQdot2jzvfwevHkd-14" value="view bidding information" style="ellipse;whiteSpace=wrap;html=1;" parent="1" vertex="1">
          <mxGeometry x="220" y="420" width="110" height="40" as="geometry" />
        </mxCell>
        <mxCell id="qVk8jQdot2jzvfwevHkd-15" value="edit profile information" style="ellipse;whiteSpace=wrap;html=1;" parent="1" vertex="1">
          <mxGeometry x="190" y="490" width="110" height="40" as="geometry" />
        </mxCell>
        <mxCell id="qVk8jQdot2jzvfwevHkd-16" value="approve auction" style="ellipse;whiteSpace=wrap;html=1;" parent="1" vertex="1">
          <mxGeometry x="290" y="550" width="110" height="40" as="geometry" />
        </mxCell>
        <mxCell id="qVk8jQdot2jzvfwevHkd-17" value="manage users" style="ellipse;whiteSpace=wrap;html=1;" parent="1" vertex="1">
          <mxGeometry x="310" y="710" width="110" height="40" as="geometry" />
        </mxCell>
        <mxCell id="qVk8jQdot2jzvfwevHkd-24" value="&amp;lt;&amp;lt;include&amp;gt;&amp;gt;" style="html=1;verticalAlign=bottom;labelBackgroundColor=none;endArrow=open;endFill=0;dashed=1;rounded=0;exitX=1;exitY=0.5;exitDx=0;exitDy=0;entryX=0.069;entryY=0.157;entryDx=0;entryDy=0;entryPerimeter=0;" parent="1" source="qVk8jQdot2jzvfwevHkd-12" target="qVk8jQdot2jzvfwevHkd-8" edge="1">
          <mxGeometry width="160" relative="1" as="geometry">
            <mxPoint x="425" y="389.47" as="sourcePoint" />
            <mxPoint x="470" y="340" as="targetPoint" />
          </mxGeometry>
        </mxCell>
        <mxCell id="qVk8jQdot2jzvfwevHkd-25" value="&amp;lt;&amp;lt;include&amp;gt;&amp;gt;" style="html=1;verticalAlign=bottom;labelBackgroundColor=none;endArrow=open;endFill=0;dashed=1;rounded=0;exitX=1;exitY=0.5;exitDx=0;exitDy=0;entryX=0;entryY=0.5;entryDx=0;entryDy=0;" parent="1" source="qVk8jQdot2jzvfwevHkd-13" target="qVk8jQdot2jzvfwevHkd-8" edge="1">
          <mxGeometry width="160" relative="1" as="geometry">
            <mxPoint x="405" y="410" as="sourcePoint" />
            <mxPoint x="565" y="410" as="targetPoint" />
          </mxGeometry>
        </mxCell>
        <mxCell id="qVk8jQdot2jzvfwevHkd-26" value="&amp;lt;&amp;lt;include&amp;gt;&amp;gt;" style="html=1;verticalAlign=bottom;labelBackgroundColor=none;endArrow=open;endFill=0;dashed=1;rounded=0;exitX=1;exitY=0.5;exitDx=0;exitDy=0;entryX=0.009;entryY=0.749;entryDx=0;entryDy=0;entryPerimeter=0;" parent="1" source="qVk8jQdot2jzvfwevHkd-14" target="qVk8jQdot2jzvfwevHkd-8" edge="1">
          <mxGeometry width="160" relative="1" as="geometry">
            <mxPoint x="480" y="439.47" as="sourcePoint" />
            <mxPoint x="640" y="439.47" as="targetPoint" />
          </mxGeometry>
        </mxCell>
        <mxCell id="qVk8jQdot2jzvfwevHkd-27" value="&amp;lt;&amp;lt;include&amp;gt;&amp;gt;" style="html=1;verticalAlign=bottom;labelBackgroundColor=none;endArrow=open;endFill=0;dashed=1;rounded=0;exitX=1;exitY=0.5;exitDx=0;exitDy=0;entryX=0;entryY=1;entryDx=0;entryDy=0;" parent="1" source="qVk8jQdot2jzvfwevHkd-15" target="qVk8jQdot2jzvfwevHkd-8" edge="1">
          <mxGeometry width="160" relative="1" as="geometry">
            <mxPoint x="420" y="450" as="sourcePoint" />
            <mxPoint x="580" y="450" as="targetPoint" />
          </mxGeometry>
        </mxCell>
        <mxCell id="qVk8jQdot2jzvfwevHkd-31" value="" style="endArrow=none;startArrow=none;endFill=0;startFill=0;endSize=8;html=1;verticalAlign=bottom;labelBackgroundColor=none;strokeWidth=2;rounded=0;" parent="1" source="qVk8jQdot2jzvfwevHkd-15" target="qVk8jQdot2jzvfwevHkd-2" edge="1">
          <mxGeometry width="160" relative="1" as="geometry">
            <mxPoint x="490" y="450" as="sourcePoint" />
            <mxPoint x="620" y="430" as="targetPoint" />
            <Array as="points" />
          </mxGeometry>
        </mxCell>
        <mxCell id="qVk8jQdot2jzvfwevHkd-32" value="" style="endArrow=none;startArrow=none;endFill=0;startFill=0;endSize=8;html=1;verticalAlign=bottom;labelBackgroundColor=none;strokeWidth=2;rounded=0;" parent="1" source="qVk8jQdot2jzvfwevHkd-13" target="qVk8jQdot2jzvfwevHkd-2" edge="1">
          <mxGeometry width="160" relative="1" as="geometry">
            <mxPoint x="500" y="430" as="sourcePoint" />
            <mxPoint x="660" y="430" as="targetPoint" />
          </mxGeometry>
        </mxCell>
        <mxCell id="qVk8jQdot2jzvfwevHkd-33" value="" style="endArrow=none;startArrow=none;endFill=0;startFill=0;endSize=8;html=1;verticalAlign=bottom;labelBackgroundColor=none;strokeWidth=2;rounded=0;" parent="1" source="qVk8jQdot2jzvfwevHkd-1" target="qVk8jQdot2jzvfwevHkd-10" edge="1">
          <mxGeometry width="160" relative="1" as="geometry">
            <mxPoint x="160" y="220" as="sourcePoint" />
            <mxPoint x="275.0000000000025" y="194" as="targetPoint" />
          </mxGeometry>
        </mxCell>
        <mxCell id="qVk8jQdot2jzvfwevHkd-35" value="" style="endArrow=none;startArrow=none;endFill=0;startFill=0;endSize=8;html=1;verticalAlign=bottom;labelBackgroundColor=none;strokeWidth=2;rounded=0;" parent="1" source="qVk8jQdot2jzvfwevHkd-14" target="qVk8jQdot2jzvfwevHkd-2" edge="1">
          <mxGeometry width="160" relative="1" as="geometry">
            <mxPoint x="480" y="339.47" as="sourcePoint" />
            <mxPoint x="640" y="339.47" as="targetPoint" />
          </mxGeometry>
        </mxCell>
        <mxCell id="qVk8jQdot2jzvfwevHkd-39" value="" style="endArrow=none;startArrow=none;endFill=0;startFill=0;endSize=8;html=1;verticalAlign=bottom;labelBackgroundColor=none;strokeWidth=2;rounded=0;" parent="1" source="qVk8jQdot2jzvfwevHkd-1" target="qVk8jQdot2jzvfwevHkd-15" edge="1">
          <mxGeometry width="160" relative="1" as="geometry">
            <mxPoint x="30" y="350" as="sourcePoint" />
            <mxPoint x="190" y="350" as="targetPoint" />
            <Array as="points" />
          </mxGeometry>
        </mxCell>
        <mxCell id="qVk8jQdot2jzvfwevHkd-40" value="" style="endArrow=none;startArrow=none;endFill=0;startFill=0;endSize=8;html=1;verticalAlign=bottom;labelBackgroundColor=none;strokeWidth=2;rounded=0;" parent="1" source="qVk8jQdot2jzvfwevHkd-1" target="qVk8jQdot2jzvfwevHkd-12" edge="1">
          <mxGeometry width="160" relative="1" as="geometry">
            <mxPoint x="20" y="340" as="sourcePoint" />
            <mxPoint x="180" y="340" as="targetPoint" />
            <Array as="points" />
          </mxGeometry>
        </mxCell>
        <mxCell id="qVk8jQdot2jzvfwevHkd-41" value="" style="endArrow=none;startArrow=none;endFill=0;startFill=0;endSize=8;html=1;verticalAlign=bottom;labelBackgroundColor=none;strokeWidth=2;rounded=0;" parent="1" source="qVk8jQdot2jzvfwevHkd-1" target="qVk8jQdot2jzvfwevHkd-7" edge="1">
          <mxGeometry width="160" relative="1" as="geometry">
            <mxPoint y="350" as="sourcePoint" />
            <mxPoint x="160" y="350" as="targetPoint" />
          </mxGeometry>
        </mxCell>
        <mxCell id="qVk8jQdot2jzvfwevHkd-42" value="" style="endArrow=none;startArrow=none;endFill=0;startFill=0;endSize=8;html=1;verticalAlign=bottom;labelBackgroundColor=none;strokeWidth=2;rounded=0;" parent="1" source="qVk8jQdot2jzvfwevHkd-7" target="qVk8jQdot2jzvfwevHkd-2" edge="1">
          <mxGeometry width="160" relative="1" as="geometry">
            <mxPoint x="440" y="89.47000000000003" as="sourcePoint" />
            <mxPoint x="600" y="89.47000000000003" as="targetPoint" />
            <Array as="points" />
          </mxGeometry>
        </mxCell>
        <mxCell id="qVk8jQdot2jzvfwevHkd-43" value="" style="endArrow=none;startArrow=none;endFill=0;startFill=0;endSize=8;html=1;verticalAlign=bottom;labelBackgroundColor=none;strokeWidth=2;rounded=0;" parent="1" source="qVk8jQdot2jzvfwevHkd-3" target="qVk8jQdot2jzvfwevHkd-16" edge="1">
          <mxGeometry width="160" relative="1" as="geometry">
            <mxPoint x="100" y="460" as="sourcePoint" />
            <mxPoint x="260" y="460" as="targetPoint" />
          </mxGeometry>
        </mxCell>
        <mxCell id="qVk8jQdot2jzvfwevHkd-44" value="" style="endArrow=none;startArrow=none;endFill=0;startFill=0;endSize=8;html=1;verticalAlign=bottom;labelBackgroundColor=none;strokeWidth=2;rounded=0;" parent="1" source="qVk8jQdot2jzvfwevHkd-3" target="qVk8jQdot2jzvfwevHkd-17" edge="1">
          <mxGeometry width="160" relative="1" as="geometry">
            <mxPoint x="197.5" y="640" as="sourcePoint" />
            <mxPoint x="357.5" y="640" as="targetPoint" />
          </mxGeometry>
        </mxCell>
        <mxCell id="qVk8jQdot2jzvfwevHkd-45" value="&amp;lt;&amp;lt;include&amp;gt;&amp;gt;" style="html=1;verticalAlign=bottom;labelBackgroundColor=none;endArrow=open;endFill=0;dashed=1;rounded=0;" parent="1" source="qVk8jQdot2jzvfwevHkd-16" target="qVk8jQdot2jzvfwevHkd-8" edge="1">
          <mxGeometry width="160" relative="1" as="geometry">
            <mxPoint x="390" y="490" as="sourcePoint" />
            <mxPoint x="550" y="490" as="targetPoint" />
          </mxGeometry>
        </mxCell>
        <mxCell id="qVk8jQdot2jzvfwevHkd-46" value="&amp;lt;&amp;lt;include&amp;gt;&amp;gt;" style="html=1;verticalAlign=bottom;labelBackgroundColor=none;endArrow=open;endFill=0;dashed=1;rounded=0;" parent="1" source="qVk8jQdot2jzvfwevHkd-17" target="qVk8jQdot2jzvfwevHkd-8" edge="1">
          <mxGeometry width="160" relative="1" as="geometry">
            <mxPoint x="420" y="569.47" as="sourcePoint" />
            <mxPoint x="580" y="569.47" as="targetPoint" />
          </mxGeometry>
        </mxCell>
        <mxCell id="qVk8jQdot2jzvfwevHkd-47" value="register account" style="ellipse;whiteSpace=wrap;html=1;" parent="1" vertex="1">
          <mxGeometry x="400" y="50" width="110" height="50" as="geometry" />
        </mxCell>
        <mxCell id="qVk8jQdot2jzvfwevHkd-53" value="&lt;font style=&quot;font-size: 16px;&quot;&gt;Online auction system&lt;/font&gt;" style="text;html=1;strokeColor=none;fillColor=none;align=center;verticalAlign=middle;whiteSpace=wrap;rounded=0;" parent="1" vertex="1">
          <mxGeometry x="328" y="10" width="195" height="30" as="geometry" />
        </mxCell>
        <mxCell id="3muTZP1Lj5kMYZsX1ov2-2" value="Visitor" style="shape=umlActor;verticalLabelPosition=bottom;verticalAlign=top;html=1;outlineConnect=0;" parent="1" vertex="1">
          <mxGeometry x="740" y="100" width="30" height="60" as="geometry" />
        </mxCell>
        <mxCell id="3muTZP1Lj5kMYZsX1ov2-4" value="" style="endArrow=none;html=1;rounded=0;strokeWidth=2;" parent="1" source="qVk8jQdot2jzvfwevHkd-10" target="3muTZP1Lj5kMYZsX1ov2-2" edge="1">
          <mxGeometry width="50" height="50" relative="1" as="geometry">
            <mxPoint x="685" y="250" as="sourcePoint" />
            <mxPoint x="735" y="200" as="targetPoint" />
          </mxGeometry>
        </mxCell>
        <mxCell id="3muTZP1Lj5kMYZsX1ov2-5" value="" style="endArrow=none;html=1;rounded=0;strokeWidth=2;" parent="1" source="qVk8jQdot2jzvfwevHkd-7" target="3muTZP1Lj5kMYZsX1ov2-2" edge="1">
          <mxGeometry width="50" height="50" relative="1" as="geometry">
            <mxPoint x="690" y="510" as="sourcePoint" />
            <mxPoint x="740" y="460" as="targetPoint" />
          </mxGeometry>
        </mxCell>
        <mxCell id="3muTZP1Lj5kMYZsX1ov2-6" value="" style="endArrow=none;html=1;rounded=0;strokeWidth=2;" parent="1" source="qVk8jQdot2jzvfwevHkd-47" target="3muTZP1Lj5kMYZsX1ov2-2" edge="1">
          <mxGeometry width="50" height="50" relative="1" as="geometry">
            <mxPoint x="710" y="80" as="sourcePoint" />
            <mxPoint x="760" y="30" as="targetPoint" />
          </mxGeometry>
        </mxCell>
        <mxCell id="M3IY0MCO5jIbyY6HYX1s-1" value="create auction" style="ellipse;whiteSpace=wrap;html=1;" parent="1" vertex="1">
          <mxGeometry x="450" y="280" width="110" height="40" as="geometry" />
        </mxCell>
        <mxCell id="M3IY0MCO5jIbyY6HYX1s-2" value="&amp;lt;&amp;lt;include&amp;gt;&amp;gt;" style="html=1;verticalAlign=bottom;labelBackgroundColor=none;endArrow=open;endFill=0;dashed=1;rounded=0;exitX=1;exitY=0.5;exitDx=0;exitDy=0;" parent="1" edge="1">
          <mxGeometry width="160" relative="1" as="geometry">
            <mxPoint x="700" y="369" as="sourcePoint" />
            <mxPoint x="861" y="550" as="targetPoint" />
          </mxGeometry>
        </mxCell>
        <mxCell id="M3IY0MCO5jIbyY6HYX1s-3" value="&amp;lt;&amp;lt;include&amp;gt;&amp;gt;" style="html=1;verticalAlign=bottom;labelBackgroundColor=none;endArrow=open;endFill=0;dashed=1;rounded=0;" parent="1" source="qVk8jQdot2jzvfwevHkd-9" target="M3IY0MCO5jIbyY6HYX1s-1" edge="1">
          <mxGeometry width="160" relative="1" as="geometry">
            <mxPoint x="710" y="379" as="sourcePoint" />
            <mxPoint x="871" y="560" as="targetPoint" />
          </mxGeometry>
        </mxCell>
        <mxCell id="M3IY0MCO5jIbyY6HYX1s-4" value="" style="endArrow=none;html=1;rounded=0;strokeWidth=2;" parent="1" source="M3IY0MCO5jIbyY6HYX1s-1" target="qVk8jQdot2jzvfwevHkd-2" edge="1">
          <mxGeometry width="50" height="50" relative="1" as="geometry">
            <mxPoint x="750" y="560" as="sourcePoint" />
            <mxPoint x="800" y="510" as="targetPoint" />
          </mxGeometry>
        </mxCell>
        <mxCell id="M3IY0MCO5jIbyY6HYX1s-6" value="&amp;lt;&amp;lt;include&amp;gt;&amp;gt;" style="html=1;verticalAlign=bottom;labelBackgroundColor=none;endArrow=open;endFill=0;dashed=1;rounded=0;" parent="1" source="M3IY0MCO5jIbyY6HYX1s-1" target="qVk8jQdot2jzvfwevHkd-8" edge="1">
          <mxGeometry width="160" relative="1" as="geometry">
            <mxPoint x="674.5" y="419" as="sourcePoint" />
            <mxPoint x="835.5" y="600" as="targetPoint" />
          </mxGeometry>
        </mxCell>
        <mxCell id="M3IY0MCO5jIbyY6HYX1s-7" value="" style="endArrow=none;html=1;rounded=0;strokeWidth=2;" parent="1" edge="1">
          <mxGeometry width="50" height="50" relative="1" as="geometry">
            <mxPoint x="695" y="260" as="sourcePoint" />
            <mxPoint x="745" y="210" as="targetPoint" />
          </mxGeometry>
        </mxCell>
        <mxCell id="M3IY0MCO5jIbyY6HYX1s-8" value="modify bid amounts" style="ellipse;whiteSpace=wrap;html=1;" parent="1" vertex="1">
          <mxGeometry x="200" y="220" width="110" height="40" as="geometry" />
        </mxCell>
        <mxCell id="M3IY0MCO5jIbyY6HYX1s-9" value="&amp;lt;&amp;lt;extend&amp;gt;&amp;gt;" style="html=1;verticalAlign=bottom;labelBackgroundColor=none;endArrow=open;endFill=0;dashed=1;rounded=0;" parent="1" edge="1">
          <mxGeometry width="160" relative="1" as="geometry">
            <mxPoint x="720" y="590" as="sourcePoint" />
            <mxPoint x="880" y="590" as="targetPoint" />
          </mxGeometry>
        </mxCell>
        <mxCell id="M3IY0MCO5jIbyY6HYX1s-10" value="&amp;lt;&amp;lt;extend&amp;gt;&amp;gt;" style="html=1;verticalAlign=bottom;labelBackgroundColor=none;endArrow=open;endFill=0;dashed=1;rounded=0;" parent="1" source="M3IY0MCO5jIbyY6HYX1s-8" target="qVk8jQdot2jzvfwevHkd-12" edge="1">
          <mxGeometry width="160" relative="1" as="geometry">
            <mxPoint x="695" y="499.5" as="sourcePoint" />
            <mxPoint x="342.34860003390577" y="290.5363077444704" as="targetPoint" />
          </mxGeometry>
        </mxCell>
      </root>
    </mxGraphModel>
  </diagram>
  <diagram id="9T5cZQYoCqjaLTcV73N4" name="2.1.1. High level organization of the model">
    <mxGraphModel dx="1042" dy="569" grid="1" gridSize="10" guides="1" tooltips="1" connect="1" arrows="1" fold="1" page="1" pageScale="1" pageWidth="827" pageHeight="1169" math="0" shadow="0">
      <root>
        <mxCell id="0" />
        <mxCell id="1" parent="0" />
        <mxCell id="_s2_6KJdwGFLwR0AV_K5-1" value="&lt;span style=&quot;font-weight: normal;&quot;&gt;&amp;lt;&amp;lt;layer&amp;gt;&amp;gt;&lt;br&gt;Application&lt;br&gt;&lt;/span&gt;" style="shape=folder;fontStyle=1;spacingTop=10;tabWidth=40;tabHeight=14;tabPosition=left;html=1;whiteSpace=wrap;" parent="1" vertex="1">
          <mxGeometry x="356" y="40" width="115" height="80" as="geometry" />
        </mxCell>
        <mxCell id="_s2_6KJdwGFLwR0AV_K5-4" value="&lt;span style=&quot;font-weight: normal;&quot;&gt;&amp;lt;&amp;lt;layer&amp;gt;&amp;gt;&lt;/span&gt;&lt;br&gt;&lt;span style=&quot;font-weight: 400;&quot;&gt;Business&lt;/span&gt;&lt;span style=&quot;font-weight: normal;&quot;&gt;&amp;nbsp;services&lt;/span&gt;" style="shape=folder;fontStyle=1;spacingTop=10;tabWidth=40;tabHeight=14;tabPosition=left;html=1;whiteSpace=wrap;" parent="1" vertex="1">
          <mxGeometry x="356" y="160" width="115" height="80" as="geometry" />
        </mxCell>
        <mxCell id="_s2_6KJdwGFLwR0AV_K5-6" value="&lt;span style=&quot;font-weight: normal;&quot;&gt;&amp;lt;&amp;lt;layer&amp;gt;&amp;gt;&lt;/span&gt;&lt;br&gt;&lt;span style=&quot;font-weight: 400;&quot;&gt;Middleware&lt;/span&gt;" style="shape=folder;fontStyle=1;spacingTop=10;tabWidth=40;tabHeight=14;tabPosition=left;html=1;whiteSpace=wrap;" parent="1" vertex="1">
          <mxGeometry x="356" y="280" width="115" height="80" as="geometry" />
        </mxCell>
        <mxCell id="_s2_6KJdwGFLwR0AV_K5-7" value="" style="html=1;verticalAlign=bottom;labelBackgroundColor=none;endArrow=open;endFill=0;dashed=1;rounded=0;" parent="1" source="_s2_6KJdwGFLwR0AV_K5-1" target="_s2_6KJdwGFLwR0AV_K5-4" edge="1">
          <mxGeometry width="160" relative="1" as="geometry">
            <mxPoint x="300" y="140" as="sourcePoint" />
            <mxPoint x="460" y="140" as="targetPoint" />
          </mxGeometry>
        </mxCell>
        <mxCell id="_s2_6KJdwGFLwR0AV_K5-8" value="" style="html=1;verticalAlign=bottom;labelBackgroundColor=none;endArrow=open;endFill=0;dashed=1;rounded=0;" parent="1" source="_s2_6KJdwGFLwR0AV_K5-4" target="_s2_6KJdwGFLwR0AV_K5-6" edge="1">
          <mxGeometry width="160" relative="1" as="geometry">
            <mxPoint x="550" y="250" as="sourcePoint" />
            <mxPoint x="550" y="290" as="targetPoint" />
            <Array as="points" />
          </mxGeometry>
        </mxCell>
      </root>
    </mxGraphModel>
  </diagram>
  <diagram id="Sh-sJi6Ky62cS6HT_y8K" name="key abstraction">
    <mxGraphModel dx="1050" dy="558" grid="1" gridSize="10" guides="1" tooltips="1" connect="1" arrows="1" fold="1" page="1" pageScale="1" pageWidth="850" pageHeight="1100" math="0" shadow="0">
      <root>
        <mxCell id="0" />
        <mxCell id="1" parent="0" />
        <mxCell id="ckhJ_pzCdI-SZCY9QidI-1" value="Administration" style="html=1;align=center;verticalAlign=middle;dashed=0;whiteSpace=wrap;" parent="1" vertex="1">
          <mxGeometry x="240" y="280" width="100" height="40" as="geometry" />
        </mxCell>
        <mxCell id="ckhJ_pzCdI-SZCY9QidI-2" value="Item" style="html=1;align=center;verticalAlign=middle;dashed=0;whiteSpace=wrap;" parent="1" vertex="1">
          <mxGeometry x="385" y="280" width="80" height="40" as="geometry" />
        </mxCell>
        <mxCell id="ckhJ_pzCdI-SZCY9QidI-3" value="Bid" style="html=1;align=center;verticalAlign=middle;dashed=0;whiteSpace=wrap;" parent="1" vertex="1">
          <mxGeometry x="510" y="280" width="80" height="40" as="geometry" />
        </mxCell>
        <mxCell id="ckhJ_pzCdI-SZCY9QidI-4" value="Auction" style="html=1;align=center;verticalAlign=middle;dashed=0;whiteSpace=wrap;" parent="1" vertex="1">
          <mxGeometry x="385" y="360" width="80" height="40" as="geometry" />
        </mxCell>
        <mxCell id="RaKuB9mrCkrhKfY8MJtm-2" value="Transaction" style="html=1;align=center;verticalAlign=middle;dashed=0;whiteSpace=wrap;" parent="1" vertex="1">
          <mxGeometry x="510" y="360" width="80" height="40" as="geometry" />
        </mxCell>
        <mxCell id="RaKuB9mrCkrhKfY8MJtm-3" value="User" style="html=1;align=center;verticalAlign=middle;dashed=0;whiteSpace=wrap;" parent="1" vertex="1">
          <mxGeometry x="260" y="360" width="80" height="40" as="geometry" />
        </mxCell>
      </root>
    </mxGraphModel>
  </diagram>
  <diagram id="XtPMB1iAXtwdAWICfKZN" name="make a bid use-case relization">
    <mxGraphModel dx="1235" dy="1825" grid="1" gridSize="10" guides="1" tooltips="1" connect="1" arrows="1" fold="1" page="1" pageScale="1" pageWidth="827" pageHeight="1169" math="0" shadow="0">
      <root>
        <mxCell id="0" />
        <mxCell id="1" parent="0" />
        <mxCell id="A_Sfa6XvdIitcTxe5b_t-9" value="" style="endArrow=none;dashed=1;html=1;rounded=0;" parent="1" source="A_Sfa6XvdIitcTxe5b_t-2" edge="1">
          <mxGeometry width="50" height="50" relative="1" as="geometry">
            <mxPoint x="70" y="450" as="sourcePoint" />
            <mxPoint x="70" y="120" as="targetPoint" />
          </mxGeometry>
        </mxCell>
        <mxCell id="A_Sfa6XvdIitcTxe5b_t-1" value=":Bidder" style="shape=umlActor;verticalLabelPosition=bottom;verticalAlign=top;html=1;" parent="1" vertex="1">
          <mxGeometry x="60" y="40" width="20" height="40" as="geometry" />
        </mxCell>
        <mxCell id="A_Sfa6XvdIitcTxe5b_t-3" value="Boundary Object" style="shape=umlBoundary;whiteSpace=wrap;html=1;" parent="1" vertex="1">
          <mxGeometry x="190" y="25" width="90" height="70" as="geometry" />
        </mxCell>
        <mxCell id="A_Sfa6XvdIitcTxe5b_t-4" value="Control Object" style="ellipse;shape=umlControl;whiteSpace=wrap;html=1;" parent="1" vertex="1">
          <mxGeometry x="500" y="-110" width="70" height="80" as="geometry" />
        </mxCell>
        <mxCell id="A_Sfa6XvdIitcTxe5b_t-6" value="Boundary Object" style="shape=umlBoundary;whiteSpace=wrap;html=1;" parent="1" vertex="1">
          <mxGeometry x="630" y="-130" width="90" height="70" as="geometry" />
        </mxCell>
        <mxCell id="A_Sfa6XvdIitcTxe5b_t-10" value="" style="endArrow=none;dashed=1;html=1;rounded=0;" parent="1" target="A_Sfa6XvdIitcTxe5b_t-2" edge="1">
          <mxGeometry width="50" height="50" relative="1" as="geometry">
            <mxPoint x="70" y="500" as="sourcePoint" />
            <mxPoint x="69.5" y="110" as="targetPoint" />
          </mxGeometry>
        </mxCell>
        <mxCell id="A_Sfa6XvdIitcTxe5b_t-2" value="" style="html=1;points=[[0,0,0,0,5],[0,1,0,0,-5],[1,0,0,0,5],[1,1,0,0,-5]];perimeter=orthogonalPerimeter;outlineConnect=0;targetShapes=umlLifeline;portConstraint=eastwest;newEdgeStyle={&quot;curved&quot;:0,&quot;rounded&quot;:0};" parent="1" vertex="1">
          <mxGeometry x="65" y="140" width="10" height="310" as="geometry" />
        </mxCell>
        <mxCell id="A_Sfa6XvdIitcTxe5b_t-12" value="Lifeline2" style="shape=umlLifeline;perimeter=lifelinePerimeter;whiteSpace=wrap;html=1;container=1;dropTarget=0;collapsible=0;recursiveResize=0;outlineConnect=0;portConstraint=eastwest;newEdgeStyle={&quot;edgeStyle&quot;:&quot;elbowEdgeStyle&quot;,&quot;elbow&quot;:&quot;vertical&quot;,&quot;curved&quot;:0,&quot;rounded&quot;:0};" parent="1" vertex="1">
          <mxGeometry x="370" y="-380" width="100" height="300" as="geometry" />
        </mxCell>
        <mxCell id="A_Sfa6XvdIitcTxe5b_t-13" value="" style="html=1;points=[[0,0,0,0,5],[0,1,0,0,-5],[1,0,0,0,5],[1,1,0,0,-5]];perimeter=orthogonalPerimeter;outlineConnect=0;targetShapes=umlLifeline;portConstraint=eastwest;newEdgeStyle={&quot;curved&quot;:0,&quot;rounded&quot;:0};fillColor=#808080;" parent="A_Sfa6XvdIitcTxe5b_t-12" vertex="1">
          <mxGeometry x="45" y="90" width="10" height="120" as="geometry" />
        </mxCell>
        <mxCell id="A_Sfa6XvdIitcTxe5b_t-14" value="Lifeline1" style="shape=umlLifeline;perimeter=lifelinePerimeter;whiteSpace=wrap;html=1;container=1;dropTarget=0;collapsible=0;recursiveResize=0;outlineConnect=0;portConstraint=eastwest;newEdgeStyle={&quot;edgeStyle&quot;:&quot;elbowEdgeStyle&quot;,&quot;elbow&quot;:&quot;vertical&quot;,&quot;curved&quot;:0,&quot;rounded&quot;:0};" parent="1" vertex="1">
          <mxGeometry x="250" y="-380" width="100" height="300" as="geometry" />
        </mxCell>
        <mxCell id="A_Sfa6XvdIitcTxe5b_t-15" value="" style="html=1;points=[[0,0,0,0,5],[0,1,0,0,-5],[1,0,0,0,5],[1,1,0,0,-5]];perimeter=orthogonalPerimeter;outlineConnect=0;targetShapes=umlLifeline;portConstraint=eastwest;newEdgeStyle={&quot;curved&quot;:0,&quot;rounded&quot;:0};" parent="A_Sfa6XvdIitcTxe5b_t-14" vertex="1">
          <mxGeometry x="45" y="90" width="10" height="120" as="geometry" />
        </mxCell>
        <mxCell id="A_Sfa6XvdIitcTxe5b_t-16" value="dispatch" style="html=1;verticalAlign=bottom;endArrow=block;curved=0;rounded=0;" parent="1" edge="1">
          <mxGeometry width="80" relative="1" as="geometry">
            <mxPoint x="130" y="-81" as="sourcePoint" />
            <mxPoint x="210" y="-81" as="targetPoint" />
          </mxGeometry>
        </mxCell>
        <mxCell id="A_Sfa6XvdIitcTxe5b_t-17" value="1:// go to auction item link" style="html=1;verticalAlign=bottom;endArrow=open;curved=0;rounded=0;endFill=0;" parent="1" edge="1">
          <mxGeometry width="80" relative="1" as="geometry">
            <mxPoint x="75" y="160" as="sourcePoint" />
            <mxPoint x="230" y="160" as="targetPoint" />
          </mxGeometry>
        </mxCell>
        <mxCell id="A_Sfa6XvdIitcTxe5b_t-18" value="" style="endArrow=none;dashed=1;html=1;rounded=0;" parent="1" edge="1">
          <mxGeometry width="50" height="50" relative="1" as="geometry">
            <mxPoint x="235" y="500" as="sourcePoint" />
            <mxPoint x="234.5" y="120" as="targetPoint" />
          </mxGeometry>
        </mxCell>
        <mxCell id="A_Sfa6XvdIitcTxe5b_t-19" value="" style="html=1;points=[[0,0,0,0,5],[0,1,0,0,-5],[1,0,0,0,5],[1,1,0,0,-5]];perimeter=orthogonalPerimeter;outlineConnect=0;targetShapes=umlLifeline;portConstraint=eastwest;newEdgeStyle={&quot;curved&quot;:0,&quot;rounded&quot;:0};" parent="1" vertex="1">
          <mxGeometry x="230" y="150" width="10" height="210" as="geometry" />
        </mxCell>
        <mxCell id="A_Sfa6XvdIitcTxe5b_t-26" value="&lt;div&gt;Auction&lt;/div&gt;&lt;div&gt;Controller&lt;br&gt;&lt;/div&gt;" style="ellipse;shape=umlControl;whiteSpace=wrap;html=1;" parent="1" vertex="1">
          <mxGeometry x="379" y="15" width="70" height="80" as="geometry" />
        </mxCell>
        <mxCell id="A_Sfa6XvdIitcTxe5b_t-27" value="Auction" style="ellipse;shape=umlEntity;whiteSpace=wrap;html=1;" parent="1" vertex="1">
          <mxGeometry x="540" y="15" width="80" height="75" as="geometry" />
        </mxCell>
        <mxCell id="A_Sfa6XvdIitcTxe5b_t-28" value="2:// request to make a bid" style="html=1;verticalAlign=bottom;endArrow=openThin;curved=0;rounded=0;endFill=0;" parent="1" edge="1">
          <mxGeometry width="80" relative="1" as="geometry">
            <mxPoint x="75" y="190" as="sourcePoint" />
            <mxPoint x="230" y="190" as="targetPoint" />
          </mxGeometry>
        </mxCell>
        <mxCell id="A_Sfa6XvdIitcTxe5b_t-29" value="AuctionItem" style="ellipse;shape=umlEntity;whiteSpace=wrap;html=1;" parent="1" vertex="1">
          <mxGeometry x="680" y="15" width="80" height="75" as="geometry" />
        </mxCell>
        <mxCell id="A_Sfa6XvdIitcTxe5b_t-30" value="&lt;font style=&quot;font-size: 12px;&quot;&gt;4:// fill bid information&lt;/font&gt;" style="html=1;verticalAlign=bottom;endArrow=openThin;curved=0;rounded=0;endFill=0;" parent="1" edge="1">
          <mxGeometry width="80" relative="1" as="geometry">
            <mxPoint x="75" y="254.5" as="sourcePoint" />
            <mxPoint x="230" y="254.5" as="targetPoint" />
          </mxGeometry>
        </mxCell>
        <mxCell id="A_Sfa6XvdIitcTxe5b_t-34" value="" style="endArrow=classic;html=1;rounded=0;" parent="1" edge="1">
          <mxGeometry width="50" height="50" relative="1" as="geometry">
            <mxPoint x="240" y="270" as="sourcePoint" />
            <mxPoint x="240" y="290" as="targetPoint" />
            <Array as="points">
              <mxPoint x="280" y="270" />
              <mxPoint x="280" y="290" />
            </Array>
          </mxGeometry>
        </mxCell>
        <mxCell id="A_Sfa6XvdIitcTxe5b_t-35" value="5: // validate()" style="text;html=1;strokeColor=none;fillColor=none;align=center;verticalAlign=middle;whiteSpace=wrap;rounded=0;" parent="1" vertex="1">
          <mxGeometry x="280" y="270" width="80" height="20" as="geometry" />
        </mxCell>
        <mxCell id="A_Sfa6XvdIitcTxe5b_t-36" value="" style="endArrow=none;dashed=1;html=1;rounded=0;startArrow=openThin;startFill=0;" parent="1" edge="1">
          <mxGeometry width="50" height="50" relative="1" as="geometry">
            <mxPoint x="75" y="230" as="sourcePoint" />
            <mxPoint x="230" y="230" as="targetPoint" />
          </mxGeometry>
        </mxCell>
        <mxCell id="A_Sfa6XvdIitcTxe5b_t-38" value="3: Ask for bid information" style="text;html=1;strokeColor=none;fillColor=none;align=center;verticalAlign=middle;whiteSpace=wrap;rounded=0;" parent="1" vertex="1">
          <mxGeometry x="70" y="210" width="160" height="10" as="geometry" />
        </mxCell>
        <mxCell id="LUF1m8RHw39wmX4psC24-1" value="" style="endArrow=none;dashed=1;html=1;rounded=0;" edge="1" parent="1" source="LUF1m8RHw39wmX4psC24-3">
          <mxGeometry width="50" height="50" relative="1" as="geometry">
            <mxPoint x="419" y="450" as="sourcePoint" />
            <mxPoint x="419" y="120" as="targetPoint" />
          </mxGeometry>
        </mxCell>
        <mxCell id="LUF1m8RHw39wmX4psC24-2" value="" style="endArrow=none;dashed=1;html=1;rounded=0;" edge="1" parent="1" target="LUF1m8RHw39wmX4psC24-3">
          <mxGeometry width="50" height="50" relative="1" as="geometry">
            <mxPoint x="419" y="500" as="sourcePoint" />
            <mxPoint x="418.5" y="110" as="targetPoint" />
          </mxGeometry>
        </mxCell>
        <mxCell id="LUF1m8RHw39wmX4psC24-3" value="" style="html=1;points=[[0,0,0,0,5],[0,1,0,0,-5],[1,0,0,0,5],[1,1,0,0,-5]];perimeter=orthogonalPerimeter;outlineConnect=0;targetShapes=umlLifeline;portConstraint=eastwest;newEdgeStyle={&quot;curved&quot;:0,&quot;rounded&quot;:0};" vertex="1" parent="1">
          <mxGeometry x="414" y="140" width="10" height="310" as="geometry" />
        </mxCell>
        <mxCell id="LUF1m8RHw39wmX4psC24-4" value="alt" style="shape=umlFrame;whiteSpace=wrap;html=1;pointerEvents=0;recursiveResize=0;container=1;collapsible=0;width=50;height=30;" vertex="1" parent="1">
          <mxGeometry x="10" y="300" width="760" height="240" as="geometry" />
        </mxCell>
        <mxCell id="LUF1m8RHw39wmX4psC24-5" value="validate sucess" style="text;html=1;strokeColor=none;fillColor=none;align=center;verticalAlign=middle;whiteSpace=wrap;rounded=0;" vertex="1" parent="LUF1m8RHw39wmX4psC24-4">
          <mxGeometry x="-5" y="40" width="60" height="30" as="geometry" />
        </mxCell>
        <mxCell id="LUF1m8RHw39wmX4psC24-6" value="&lt;font style=&quot;font-size: 12px;&quot;&gt;4://send bid (info)&lt;br&gt;&lt;/font&gt;" style="html=1;verticalAlign=bottom;endArrow=openThin;curved=0;rounded=0;endFill=0;" edge="1" parent="LUF1m8RHw39wmX4psC24-4" target="LUF1m8RHw39wmX4psC24-3">
          <mxGeometry width="80" relative="1" as="geometry">
            <mxPoint x="230" y="30" as="sourcePoint" />
            <mxPoint x="385" y="30" as="targetPoint" />
          </mxGeometry>
        </mxCell>
        <mxCell id="LUF1m8RHw39wmX4psC24-7" value="alt" style="shape=umlFrame;whiteSpace=wrap;html=1;pointerEvents=0;recursiveResize=0;container=1;collapsible=0;width=50;height=30;" vertex="1" parent="LUF1m8RHw39wmX4psC24-4">
          <mxGeometry x="350" y="40" width="400" height="180" as="geometry" />
        </mxCell>
      </root>
    </mxGraphModel>
  </diagram>
</mxfile>
